<?xml version="1.0" encoding="utf-8"?>
<!-- Generator: Adobe Illustrator 28.2.0, SVG Export Plug-In . SVG Version: 6.00 Build 0)  -->
<svg version="1.1" xmlns="http://www.w3.org/2000/svg" xmlns:xlink="http://www.w3.org/1999/xlink" x="0px" y="0px"
	 viewBox="0 0 595.3 841.9" style="enable-background:new 0 0 595.3 841.9;" xml:space="preserve">
<style type="text/css">
	.st0{fill:none;}
	.st1{font-family:'KozGoPr6N-Regular-90ms-RKSJ-H';}
	.st2{font-size:24px;}
	.st3{font-size:18px;}
	.st4{letter-spacing:-9;}
	.st5{letter-spacing:4;}
	.st6{font-size:21px;}
	.st7{font-size:19px;}
	.st8{font-size:20px;}
	.st9{letter-spacing:-10;}
	.st10{font-size:12px;}
</style>
<g id="レイヤー_1">
	<rect x="36.6" y="30" class="st0" width="522" height="68"/>
	<text transform="matrix(1 0 0 1 69.638 51.1201)"><tspan x="0" y="0" class="st1 st2">家族のためのジャズクラシックコンサート</tspan><tspan x="132" y="42" class="st1 st2">来場者アンケート</tspan></text>
	<rect x="33.1" y="120.4" class="st0" width="529" height="75.6"/>
	<text transform="matrix(1 0 0 1 33.138 136.2095)"><tspan x="0" y="0" class="st1 st3">この度はご来場頂きましてありがとうございます</tspan><tspan x="396" y="0" class="st1 st3 st4">。</tspan><tspan x="0" y="26" class="st1 st3">アンケートにお答え頂きます</tspan><tspan x="234" y="26" class="st1 st3 st5">と</tspan><tspan x="256.5" y="26" class="st1 st3">5</tspan><tspan x="266.4" y="26" class="st1 st3 st5">0</tspan><tspan x="280.8" y="26" class="st1 st3">名の皆様にオリジナルグッズ</tspan><tspan x="0" y="52" class="st1 st3">を差し上げます</tspan><tspan x="126" y="52" class="st1 st3 st4">。</tspan></text>
	<rect x="15.5" y="211.1" class="st0" width="111" height="19.5"/>
	<text transform="matrix(1 0 0 1 42.4578 229.5698)" class="st1 st6">ふりがな</text>
	<rect x="15.5" y="269.3" class="st0" width="111" height="19.5"/>
	<text transform="matrix(1 0 0 1 42.4578 287.8291)" class="st1 st6">郵便番号</text>
	<rect x="33.1" y="406.9" class="st0" width="514.7" height="53"/>
	<text transform="matrix(1 0 0 1 33.138 423.623)"><tspan x="0" y="0" class="st1 st7">Q1. あなたはこのコンサートを何でお知りになりましたか</tspan><tspan x="489" y="0" class="st1 st7 st4">。</tspan><tspan x="0" y="28" class="st1 st7">[ </tspan><tspan x="10.3" y="28" class="st1 st7 st5">]</tspan><tspan x="21" y="28" class="st1 st7">に数字をご記入ください</tspan><tspan x="230" y="28" class="st1 st7 st4">。</tspan></text>
	<rect x="33.1" y="573.9" class="st0" width="514.7" height="56.1"/>
	<text transform="matrix(1 0 0 1 33.138 590.623)"><tspan x="0" y="0" class="st1 st7">Q2. このコンサートはいかがでしたか。[ </tspan><tspan x="347.3" y="0" class="st1 st7 st5">]</tspan><tspan x="358" y="0" class="st1 st7">に数字をご記入く</tspan><tspan x="0" y="28" class="st1 st7">ださい</tspan><tspan x="57" y="28" class="st1 st7 st4">。</tspan></text>
	<rect x="33.1" y="709.1" class="st0" width="514.7" height="56.1"/>
	<text transform="matrix(1 0 0 1 33.138 725.8701)"><tspan x="0" y="0" class="st1 st7">Q3. 今後のコンサートの案内を希望しますか。[ </tspan><tspan x="404.3" y="0" class="st1 st7 st5">]</tspan><tspan x="415" y="0" class="st1 st7">に数字をご</tspan><tspan x="0" y="28" class="st1 st7">記入ください</tspan><tspan x="114" y="28" class="st1 st7 st4">。</tspan></text>
	<rect x="15.5" y="298.5" class="st0" width="111" height="19.5"/>
	<text transform="matrix(1 0 0 1 84.4578 316.9587)" class="st1 st6">住所</text>
	<rect x="15.5" y="326.5" class="st0" width="111" height="19.5"/>
	<text transform="matrix(1 0 0 1 42.4578 344.9675)" class="st1 st6">電話番号</text>
	<rect x="15.5" y="355.6" class="st0" width="111" height="19.5"/>
	<text transform="matrix(1 0 0 1 68.7718 374.0972)" class="st1 st6">E-Mail</text>
	<rect x="15.5" y="240.2" class="st0" width="111" height="19.5"/>
	<text transform="matrix(1 0 0 1 84.4578 258.6995)" class="st1 st6">氏名</text>
	<rect x="33.1" y="466.9" class="st0" width="257.4" height="20"/>
	<text transform="matrix(1 0 0 1 33.138 483.5962)"><tspan x="0" y="0" class="st1 st7">1</tspan><tspan x="10.5" y="0" class="st1 st7 st5">.</tspan><tspan x="19.4" y="0" class="st1 st7">インターネットで見て</tspan></text>
	<rect x="33.1" y="496.8" class="st0" width="257.4" height="20"/>
	<text transform="matrix(1 0 0 1 33.138 513.4722)"><tspan x="0" y="0" class="st1 st7">3</tspan><tspan x="10.5" y="0" class="st1 st7 st5">.</tspan><tspan x="19.4" y="0" class="st1 st7">市の広報紙を見て</tspan></text>
	<rect x="33.1" y="526.6" class="st0" width="257.4" height="20"/>
	<text transform="matrix(1 0 0 1 33.138 543.3486)"><tspan x="0" y="0" class="st1 st7">5</tspan><tspan x="10.5" y="0" class="st1 st7 st5">.</tspan><tspan x="19.4" y="0" class="st1 st7">知人に紹介されて</tspan></text>
	<rect x="283" y="526.6" class="st0" width="257.4" height="20"/>
	<text transform="matrix(1 0 0 1 282.9798 543.3486)"><tspan x="0" y="0" class="st1 st7">6</tspan><tspan x="10.5" y="0" class="st1 st7 st5">.</tspan><tspan x="19.4" y="0" class="st1 st7">その他</tspan></text>
	<rect x="283" y="496.8" class="st0" width="257.4" height="20"/>
	<text transform="matrix(1 0 0 1 282.9798 513.4722)"><tspan x="0" y="0" class="st1 st7">4</tspan><tspan x="10.5" y="0" class="st1 st7 st5">.</tspan><tspan x="19.4" y="0" class="st1 st7">学校で紹介されて</tspan></text>
	<rect x="282" y="466.9" class="st0" width="273" height="20"/>
	<text transform="matrix(1 0 0 1 281.9998 483.5962)"><tspan x="0" y="0" class="st1 st7">2</tspan><tspan x="10.5" y="0" class="st1 st7 st5">.</tspan><tspan x="19.4" y="0" class="st1 st7">スーパーのポスターを見て</tspan></text>
	<rect x="33.1" y="635.5" class="st0" width="257.4" height="20"/>
	<text transform="matrix(1 0 0 1 33.138 652.2468)"><tspan x="0" y="0" class="st1 st7">1</tspan><tspan x="10.5" y="0" class="st1 st7 st5">.</tspan><tspan x="19.4" y="0" class="st1 st7">とても良かった</tspan></text>
	<rect x="33.1" y="665.4" class="st0" width="257.4" height="20"/>
	<text transform="matrix(1 0 0 1 33.138 682.1228)"><tspan x="0" y="0" class="st1 st7">3</tspan><tspan x="10.5" y="0" class="st1 st7 st5">.</tspan><tspan x="19.4" y="0" class="st1 st7">あまり良くなかった</tspan></text>
	<rect x="282" y="635.5" class="st0" width="273" height="20"/>
	<text transform="matrix(1 0 0 1 281.9998 652.2468)"><tspan x="0" y="0" class="st1 st7">2</tspan><tspan x="10.5" y="0" class="st1 st7 st5">.</tspan><tspan x="19.4" y="0" class="st1 st7">良かった</tspan></text>
	<rect x="33.1" y="771.3" class="st0" width="257.4" height="20"/>
	<text transform="matrix(1 0 0 1 33.138 788.021)"><tspan x="0" y="0" class="st1 st7">1</tspan><tspan x="10.5" y="0" class="st1 st7 st5">.</tspan><tspan x="19.4" y="0" class="st1 st7">はい</tspan></text>
	<rect x="282" y="771.3" class="st0" width="273" height="20"/>
	<text transform="matrix(1 0 0 1 281.9998 788.021)" class="st1 st7">2. いいえ</text>
</g>
<g id="レイヤー_2">
	<rect x="151" y="298.5" class="st0" width="390" height="19.5"/>
	<text transform="matrix(1 0 0 1 150.9998 316.9587)" class="st1 st6">加須市三俣２－１－１</text>
	<rect x="151" y="269.3" class="st0" width="390" height="19.5"/>
	<text transform="matrix(1 0 0 1 150.9998 287.8291)" class="st1 st6">347-8501</text>
	<rect x="151" y="355.8" class="st0" width="390" height="19.5"/>
	<text transform="matrix(1 0 0 1 150.9998 374.2705)" class="st1 st6">aw2m9p@kjsti.com</text>
	<rect x="151" y="326.7" class="st0" width="390" height="19.5"/>
	<text transform="matrix(1 0 0 1 150.9998 345.1409)" class="st1 st6">0480-62-1111</text>
	<rect x="151" y="240.2" class="st0" width="390" height="19.5"/>
	<text transform="matrix(1 0 0 1 150.9998 258.6995)" class="st1 st6">角田守良</text>
	<rect x="151" y="211.1" class="st0" width="390" height="19.5"/>
	<text transform="matrix(1 0 0 1 150.9998 229.5698)" class="st1 st6">ツノダモリヨシ</text>
	<rect x="431.1" y="435" class="st0" width="131" height="25"/>
	<text transform="matrix(1 0 0 1 421.138 452.551)"><tspan x="0" y="0" class="st1 st8">［　　　　　</tspan><tspan x="120" y="0" class="st1 st8 st9">］</tspan></text>
	<rect x="431.1" y="602" class="st0" width="131" height="25"/>
	<text transform="matrix(1 0 0 1 421.138 619.551)"><tspan x="0" y="0" class="st1 st8">［　　　　　</tspan><tspan x="120" y="0" class="st1 st8 st9">］</tspan></text>
	<rect x="431.1" y="737.2" class="st0" width="131" height="25"/>
	<text transform="matrix(1 0 0 1 421.138 754.7981)"><tspan x="0" y="0" class="st1 st8">［　　　　　</tspan><tspan x="120" y="0" class="st1 st8 st9">］</tspan></text>
	<rect x="445.5" y="436.5" class="st0" width="91" height="21"/>
	<text transform="matrix(1 0 0 1 485.7656 453.1711)" class="st1 st7">3</text>
	<rect x="445.5" y="602.6" class="st0" width="91" height="21"/>
	<text transform="matrix(1 0 0 1 485.7656 619.3267)" class="st1 st7">1</text>
	<rect x="445.5" y="736.7" class="st0" width="91" height="21"/>
	<text transform="matrix(1 0 0 1 485.7656 753.4182)" class="st1 st7">1</text>
	<rect x="21.6" y="22.8" class="st0" width="40" height="25"/>
	<text transform="matrix(1 0 0 1 21.6175 33.3223)" class="st1 st10">9</text>
</g>
</svg>
